<svg width="155.532470703125px" height="122.021240234375px" xmlns="http://www.w3.org/2000/svg"
     viewBox="172.2337646484375 13.9893798828125 155.532470703125 122.021240234375"
     style="background: rgba(0, 0, 0, 0);" preserveAspectRatio="xMidYMid">
    <defs>
        <filter id="editing-vr">
            <feFlood flood-color="#f00" flood-opacity="0.7" result="c1"></feFlood>
            <feFlood flood-color="#00f" flood-opacity="0.7" result="c3"></feFlood>
            <feComposite operator="in" in="c1" in2="SourceAlpha" result="text-c1"></feComposite>
            <feComposite operator="in" in="c3" in2="SourceAlpha" result="text-c3"></feComposite>
            <feOffset in="text-c1" dx="5" dy="-1" result="text1"></feOffset>
            <feOffset in="text-c3" dx="-5" dy="1" result="text3"></feOffset>
            <feBlend in="SourceGraphic" in2="text1" mode="multiply" result="text4"></feBlend>
            <feBlend in="text4" in2="text3" mode="multiply"></feBlend>
        </filter>
    </defs>
    <g filter="url(#editing-vr)">
        <g transform="translate(198.31999826431274, 97.45718765258789)">
            <path d="M6.21-31.17L6.21-31.17L6.21-31.17Q4.03-32.83 4.03-36.38L4.03-36.38L4.03-36.38Q4.03-39.94 6.37-41.79L6.37-41.79L6.37-41.79Q8.70-43.65 12.74-43.65L12.74-43.65L12.74-43.65Q15.30-43.65 21.38-42.75L21.38-42.75L25.73-42.11L25.73-42.11Q27.90-41.86 30.18-41.86L30.18-41.86L30.18-41.86Q32.45-41.86 33.98-42.82L33.98-42.82L33.98-42.82Q36.29-40.77 36.29-37.82L36.29-37.82L36.29-37.82Q36.29-34.88 33.66-32.77L33.66-32.77L33.66-32.77Q30.98-30.53 27.52-30.53L27.52-30.53L27.52-30.53Q25.86-30.53 23.17-30.98L23.17-30.98L23.17-30.98Q20.03-21.12 20.03-14.27L20.03-14.27L20.03-14.27Q20.03-7.42 23.49-3.84L23.49-3.84L23.49-3.84Q21.89-0.96 19.52 0.16L19.52 0.16L19.52 0.16Q17.15 1.28 13.60 1.28L13.60 1.28L13.60 1.28Q10.05 1.28 7.84-0.67L7.84-0.67L7.84-0.67Q5.63-2.62 5.63-6.66L5.63-6.66L5.63-6.66Q5.63-11.33 8.19-19.01L8.19-19.01L8.19-19.01Q10.75-26.62 14.59-32.45L14.59-32.45L14.59-32.45Q12.74-32.64 10.82-32.64L10.82-32.64L10.82-32.64Q6.85-32.64 6.21-31.17ZM47.36 0L33.66 0L41.47-42.05L41.47-42.05Q47.81-42.75 57.06-42.75L57.06-42.75L57.06-42.75Q66.30-42.75 70.59-40.06L70.59-40.06L70.59-40.06Q74.88-37.38 74.88-31.97L74.88-31.97L74.88-31.97Q74.88-26.56 72.10-23.17L72.10-23.17L72.10-23.17Q69.31-19.78 64.51-18.69L64.51-18.69L64.51-18.69Q65.60-13.38 68.10-9.09L68.10-9.09L68.10-9.09Q70.40-5.06 73.09-3.78L73.09-3.78L73.09-3.78Q72.13-1.09 70.18 0.10L70.18 0.10L70.18 0.10Q68.22 1.28 65.44 1.28L65.44 1.28L65.44 1.28Q62.66 1.28 60.48-0.35L60.48-0.35L60.48-0.35Q58.30-1.98 56.58-4.99L56.58-4.99L56.58-4.99Q52.93-11.52 52.54-21.82L52.54-21.82L52.99-21.82L52.99-21.82Q57.73-21.95 60.10-24.42L60.10-24.42L60.10-24.42Q62.46-26.88 62.46-32.06L62.46-32.06L62.46-32.06Q62.46-38.53 57.02-38.78L57.02-38.78L55.62-38.78L55.62-38.78Q55.04-38.78 54.72-38.72L54.72-38.72L47.36 0ZM91.07 0L77.12 0L85.25-42.24L99.33-42.24L91.07 0Z"
                  fill="#444"></path>
        </g>
    </g>
    <style>text {
        font-size: 64px;
        font-family: Arial Black;
        dominant-baseline: central;
        text-anchor: middle;
        }
    </style>
</svg>
